<svg id="eMHiub02W9v1" xmlns="http://www.w3.org/2000/svg" xmlns:xlink="http://www.w3.org/1999/xlink" viewBox="0 0 1440 1182" shape-rendering="geometricPrecision" text-rendering="geometricPrecision"><g transform="matrix(.1 0 0-.190391-8.263699 1184.065924)"><path d="M1,4727.908902C2,914.257202,4,204.939787,15,261c73,363.612769,317,639.242149,765,865.818842c545,274.072152,1435,455.48923,2660,541.915391c867,61.510511,1575,77.861407,3445,79.418635c2453,3.114456,3286,21.801194,4200,93.433688c1623,126.914093,2593,412.665455,3038,893.070335c119,128.471321,212,301.323644,254,468.725668c17,70.85388,18,204.7755,21,3066.182196L14400,9261h-7200-7200L1,4727.908902Z" transform="matrix(1.002869 0 0 0.74469 41.32094 1585.11633)" fill="#0f0ec9"/></g></svg>
